<svg xmlns="http://www.w3.org/2000/svg" viewBox="0 0 32 32" fill="none">
  <rect width="32" height="32" rx="7" fill="#0a0a0b"/>
  <path
    d="M16 4
       C22.5 4 26 8.5 26.5 13.5
       L27.5 20.5
       C27.7 22.8 26.2 24 24 24.5
       L21 25.5
       L16 28.5
       L11 25.5
       L8 24.5
       C5.8 24 4.3 22.8 4.5 20.5
       L5.5 13.5
       C6 8.5 9.5 4 16 4Z"
    fill="#111114"
    stroke="#d4d4d8"
    stroke-width="0.6"
  />
  <path d="M8.5 14.5 C10.5 12.5 13.2 13 14.2 15 C12.8 16 10.5 16 8.5 14.5Z" fill="#d4d4d8"/>
  <path d="M23.5 14.5 C21.5 12.5 18.8 13 17.8 15 C19.2 16 21.5 16 23.5 14.5Z" fill="#d4d4d8"/>
  <path d="M12 20.5 L16 26.5 L20 20.5 L18.2 20 L16 23.2 L13.8 20 Z" fill="#d4d4d8"/>
</svg>
